<svg xmlns="http://www.w3.org/2000/svg" xmlns:xlink="http://www.w3.org/1999/xlink" width="276" zoomAndPan="magnify" viewBox="0 0 206.87999 80.999996" height="108" preserveAspectRatio="xMidYMid meet" version="1.0"><defs><clipPath id="13db81cdad"><path d="M 0 0.0234375 L 79.453125 0.0234375 L 79.453125 80.976562 L 0 80.976562 Z M 0 0.0234375 " clip-rule="nonzero"/></clipPath></defs><path fill="#4a6cf7" d="M 57.574219 12.210938 L 41.386719 17.605469 L 42.242188 20.164062 L 58.425781 14.769531 L 57.574219 12.210938 " fill-opacity="1" fill-rule="nonzero"/><path fill="#4a6cf7" d="M 5.394531 53.953125 L 49.90625 53.953125 L 49.90625 51.257812 L 5.394531 51.257812 L 5.394531 53.953125 " fill-opacity="1" fill-rule="nonzero"/><path fill="#4a6cf7" d="M 5.394531 59.351562 L 49.90625 59.351562 L 49.90625 56.652344 L 5.394531 56.652344 L 5.394531 59.351562 " fill-opacity="1" fill-rule="nonzero"/><g clip-path="url(#13db81cdad)"><path fill="#4a6cf7" d="M 57.058594 61.550781 C 54.644531 57.535156 54.746094 52.5 57.367188 48.570312 L 57.605469 48.210938 L 74.070312 38.332031 C 73.023438 41.601562 73.484375 45.21875 75.457031 48.175781 L 76.339844 49.5 Z M 76.234375 65.753906 L 57.039062 77.75 C 54.621094 73.730469 54.71875 68.691406 57.339844 64.753906 L 57.609375 64.355469 C 57.75 64.285156 57.886719 64.214844 58.023438 64.128906 L 73.222656 54.632812 C 72.636719 58.5625 73.695312 62.582031 76.234375 65.753906 Z M 54.25 62.046875 L 4.046875 62.046875 C 3.304688 62.046875 2.699219 61.441406 2.699219 60.699219 L 2.699219 48.683594 C 2.699219 48.640625 2.703125 48.601562 2.707031 48.558594 L 54.25 48.558594 C 52.078125 52.800781 52.078125 57.808594 54.25 62.046875 Z M 54.226562 78.234375 L 10.789062 78.234375 C 10.046875 78.234375 9.441406 77.628906 9.441406 76.886719 L 9.441406 64.746094 L 54.226562 64.746094 C 52.054688 68.984375 52.054688 73.992188 54.226562 78.234375 Z M 20.011719 36.816406 C 20.128906 36.867188 20.25 36.910156 20.375 36.949219 L 39.257812 42.851562 C 39.652344 42.972656 40.058594 43.035156 40.464844 43.035156 C 40.871094 43.035156 41.277344 42.972656 41.671875 42.851562 L 60.554688 36.949219 C 61.570312 36.632812 62.386719 35.949219 62.875 35.070312 L 74.261719 35.070312 L 56.277344 45.863281 L 5.941406 45.863281 Z M 20.234375 20.761719 L 39.117188 26.621094 L 39.117188 39.980469 L 21.179688 34.375 C 20.613281 34.199219 20.234375 33.679688 20.234375 33.085938 Z M 41.8125 26.621094 L 60.699219 20.761719 L 60.699219 33.085938 C 60.699219 33.679688 60.316406 34.199219 59.75 34.375 L 41.8125 39.980469 Z M 76.519531 52.570312 L 77.769531 51.789062 C 78.394531 51.398438 78.820312 50.789062 78.976562 50.070312 C 79.132812 49.351562 78.992188 48.617188 78.585938 48.003906 L 77.699219 46.679688 C 75.730469 43.722656 75.730469 39.90625 77.699219 36.953125 L 77.957031 36.566406 C 78.507812 35.738281 78.5625 34.675781 78.089844 33.796875 C 77.621094 32.917969 76.710938 32.375 75.710938 32.375 L 63.394531 32.375 L 63.394531 19.925781 L 75.832031 16.066406 C 76.964844 15.714844 77.730469 14.679688 77.730469 13.488281 C 77.730469 12.300781 76.964844 11.265625 75.832031 10.914062 L 41.695312 0.320312 C 40.878906 0.0664062 40.023438 0.0742188 39.214844 0.34375 L 31.945312 2.769531 L 32.796875 5.328125 L 40.066406 2.90625 C 40.335938 2.8125 40.625 2.8125 40.894531 2.894531 L 75.03125 13.488281 L 40.863281 24.09375 C 40.601562 24.171875 40.328125 24.171875 40.066406 24.09375 L 5.96875 13.511719 L 15.226562 10.734375 L 14.449219 8.152344 L 5.195312 10.925781 C 4.050781 11.269531 3.277344 12.304688 3.273438 13.5 C 3.265625 14.695312 4.03125 15.734375 5.171875 16.085938 L 5.394531 16.15625 L 5.394531 26.605469 L 1.542969 33.027344 L 3.855469 34.417969 L 5.394531 31.847656 L 5.394531 36.417969 L 8.09375 36.417969 L 8.09375 31.847656 L 9.632812 34.417969 L 11.945312 33.027344 L 8.09375 26.605469 L 8.09375 16.996094 L 17.535156 19.925781 L 17.535156 33.085938 C 17.535156 33.742188 17.691406 34.367188 17.972656 34.921875 L 1.859375 45.28125 C 0.695312 46.027344 0 47.300781 0 48.683594 L 0 60.699219 C 0 62.929688 1.816406 64.746094 4.046875 64.746094 L 6.746094 64.746094 L 6.746094 76.886719 C 6.746094 79.117188 8.558594 80.929688 10.789062 80.929688 L 55.878906 80.929688 C 56.636719 80.929688 57.378906 80.71875 58.023438 80.316406 L 77.660156 68.039062 C 78.316406 67.632812 78.761719 66.964844 78.890625 66.207031 C 79.019531 65.449219 78.820312 64.667969 78.339844 64.066406 C 75.839844 60.945312 75.105469 56.816406 76.367188 53.019531 L 76.519531 52.570312 " fill-opacity="1" fill-rule="nonzero"/></g><path fill="#4a6cf7" d="M 12.140625 70.140625 L 49.90625 70.140625 L 49.90625 67.441406 L 12.140625 67.441406 L 12.140625 70.140625 " fill-opacity="1" fill-rule="nonzero"/><path fill="#4a6cf7" d="M 12.140625 75.535156 L 49.90625 75.535156 L 49.90625 72.839844 L 12.140625 72.839844 L 12.140625 75.535156 " fill-opacity="1" fill-rule="nonzero"/><path fill="#4a6cf7" d="M 24.277344 6.054688 C 24.828125 6.855469 25.519531 7.546875 26.320312 8.09375 C 25.519531 8.640625 24.828125 9.335938 24.277344 10.132812 C 23.730469 9.335938 23.039062 8.640625 22.238281 8.09375 C 23.039062 7.546875 23.730469 6.855469 24.277344 6.054688 Z M 22.929688 14.5 L 22.929688 14.839844 L 25.628906 14.839844 L 25.628906 14.5 C 25.628906 11.710938 27.898438 9.441406 30.6875 9.441406 L 31.023438 9.441406 L 31.023438 6.746094 L 30.6875 6.746094 C 27.898438 6.746094 25.628906 4.476562 25.628906 1.6875 L 25.628906 1.351562 L 22.929688 1.351562 L 22.929688 1.6875 C 22.929688 4.476562 20.660156 6.746094 17.871094 6.746094 L 17.535156 6.746094 L 17.535156 9.441406 L 17.871094 9.441406 C 20.660156 9.441406 22.929688 11.710938 22.929688 14.5 " fill-opacity="1" fill-rule="nonzero"/></svg>